<?xml version="1.0" encoding="utf-8"?>
<!-- Generator: Adobe Illustrator 23.0.1, SVG Export Plug-In . SVG Version: 6.00 Build 0)  -->
<svg version="1.1" id="Layer_1" xmlns="http://www.w3.org/2000/svg" xmlns:xlink="http://www.w3.org/1999/xlink" x="0px" y="0px"
	 viewBox="0 0 16 16" style="enable-background:new 0 0 16 16;" xml:space="preserve">
<style type="text/css">
	.st0{fill:#FFFFFF;}
</style>
<path class="st0" d="M15.51,9.68l-1.27-0.7C14.3,8.66,14.33,8.33,14.33,8c0-0.33-0.03-0.66-0.08-0.98l1.27-0.7
	c0.46-0.26,0.62-0.82,0.36-1.27l-1.27-2.1c-0.27-0.44-0.86-0.6-1.33-0.34l-1.27,0.7c-0.53-0.41-1.12-0.75-1.77-0.98v-1.4
	C10.24,0.42,9.8,0,9.27,0H6.73C6.2,0,5.76,0.42,5.76,0.93v1.4C5.12,2.57,4.52,2.9,3.99,3.31l-1.27-0.7C2.26,2.35,1.66,2.51,1.4,2.95
	l-1.27,2.1c-0.27,0.44-0.11,1.01,0.36,1.27l1.27,0.7C1.7,7.34,1.67,7.67,1.67,8c0,0.33,0.03,0.66,0.08,0.98l-1.27,0.7
	c-0.46,0.26-0.62,0.82-0.36,1.27l1.27,2.1c0.27,0.44,0.86,0.6,1.33,0.34l1.27-0.7c0.53,0.41,1.12,0.75,1.77,0.98v1.4
	C5.76,15.58,6.2,16,6.73,16h2.53c0.54,0,0.97-0.42,0.97-0.93v-1.4c0.65-0.23,1.25-0.57,1.77-0.98l1.27,0.7
	c0.46,0.26,1.06,0.1,1.33-0.34l1.27-2.1C16.14,10.51,15.98,9.94,15.51,9.68z M8,11.96c-2.28,0-4.13-1.77-4.13-3.96
	c0-2.19,1.85-3.96,4.13-3.96c2.28,0,4.13,1.77,4.13,3.96C12.13,10.19,10.28,11.96,8,11.96z"/>
</svg>
