<?xml version="1.0" encoding="utf-8"?>
<!-- Generator: Adobe Illustrator 23.0.1, SVG Export Plug-In . SVG Version: 6.00 Build 0)  -->
<svg version="1.1" id="Layer_1" xmlns="http://www.w3.org/2000/svg" xmlns:xlink="http://www.w3.org/1999/xlink" x="0px" y="0px"
	 viewBox="0 0 189.3 78.97" style="enable-background:new 0 0 189.3 78.97;" xml:space="preserve">
<style type="text/css">
	.st0{fill:#FFFFFF;}
</style>
<rect y="26.13" class="st0" width="11.19" height="25.32"/>
<rect x="61.45" y="26.13" class="st0" width="12.4" height="25.32"/>
<path class="st0" d="M61.45,24.28h12.4V10.31h37.71c0,0,4.22-1.05,3.96,2.9v5.8c0,0,0.28,3.42-2.9,2.9H83.08v2.37h42.99v-14.1
	c0,0-0.79-10.69-8.18-10.16H61.45V24.28z"/>
<path class="st0" d="M84.92,26.13l21.36,24h17.14l-14.51-16.62l8.7-0.53c0,0,8.44-1.85,8.44-6.86H84.92V26.13z"/>
<path class="st0" d="M187.52,0.02L141.63,0c0,0-10.81-0.24-10.02,9.78v14.51h10.81v-8.18c0,0-0.62-3.68,4.75-3.97h40.35L187.52,0.02
	L187.52,0.02z"/>
<path class="st0" d="M159.55,24.28v-3.69c0,0-0.82-1.32,1.7-1.32h25.5c0,0,2.82,1.16,2.52,2.51v2.51h-29.72"/>
<path class="st0" d="M159.54,26.13v3.96h13.93c0,0,2.97-1.85,2.44,3.43v4.62h-29.54c0,0-3.16,1.71-4.22-2.77v-9.23h-10.59V40.9
	c0,0,0.31,6.59,11.12,10.55h46.15V25.73L159.54,26.13z"/>
<g>
	<path class="st0" d="M4.81,74.47c-1.46-4.03-2.97-8.03-4.55-12c0.57,0.01,1.03,0.02,1.39,0.02c0.39,0,0.86-0.01,1.39-0.02l2.5,7.27
		l1.04,2.86c0.23-0.43,0.57-1.13,1.02-2.09c0.46-0.96,0.78-1.66,0.98-2.12c-0.27-0.82-0.62-1.81-1.04-2.98s-0.79-2.15-1.1-2.95
		c0.51,0.01,0.95,0.02,1.33,0.02c0.42,0,0.87-0.01,1.33-0.02c0.28,1.06,0.59,2.11,0.93,3.15c0.5-1.06,0.95-2.11,1.37-3.15
		c0.52,0.01,0.94,0.02,1.25,0.02c0.36,0,0.78-0.01,1.25-0.02c-0.38,0.75-0.85,1.71-1.42,2.87c-0.56,1.17-1.02,2.14-1.36,2.92
		c0.13,0.42,0.38,1.14,0.74,2.15s0.62,1.72,0.79,2.14l2.4-5.03l1.74-3.76l0.57-1.28c0.57,0.01,1.03,0.02,1.38,0.02
		c0.38,0,0.84-0.01,1.39-0.02l-1.68,3.28l-3.51,7.08l-0.79,1.63c-0.64-0.01-1.18-0.02-1.63-0.02c-0.48,0-1.02,0.01-1.64,0.02
		c-0.35-1.18-0.74-2.34-1.16-3.48c-0.56,1.14-1.1,2.3-1.6,3.48c-0.64-0.01-1.19-0.02-1.65-0.02C5.97,74.45,5.42,74.46,4.81,74.47z"
		/>
	<path class="st0" d="M28.44,72.47c-0.08,0.35-0.19,0.97-0.33,1.86c-0.64,0.13-1.18,0.23-1.62,0.27s-0.88,0.07-1.33,0.07
		c-0.78,0-1.48-0.08-2.09-0.23c-0.62-0.15-1.16-0.43-1.62-0.84c-0.46-0.41-0.81-0.91-1.03-1.5c-0.22-0.59-0.33-1.21-0.33-1.86
		c0-0.72,0.13-1.42,0.38-2.09s0.61-1.23,1.08-1.66c0.46-0.43,0.99-0.73,1.58-0.91s1.21-0.27,1.85-0.27c0.61,0,1.18,0.07,1.73,0.22
		s1.01,0.39,1.38,0.73c0.37,0.34,0.66,0.75,0.86,1.22s0.3,1.01,0.3,1.59c0,0.27-0.03,0.56-0.09,0.85l-6.54,0.01
		c-0.01,0.22-0.02,0.39-0.02,0.52c0,0.39,0.07,0.75,0.21,1.08s0.34,0.61,0.6,0.83c0.26,0.23,0.57,0.4,0.94,0.5
		c0.36,0.11,0.72,0.16,1.07,0.16c0.41,0,0.86-0.04,1.33-0.13S27.78,72.69,28.44,72.47z M22.67,68.92l4.18,0.01
		c0-0.28-0.01-0.49-0.03-0.62c-0.02-0.13-0.06-0.29-0.12-0.46s-0.15-0.32-0.25-0.46s-0.23-0.24-0.38-0.33
		c-0.14-0.09-0.31-0.15-0.5-0.2s-0.39-0.07-0.6-0.07c-0.25,0-0.49,0.04-0.73,0.11c-0.24,0.08-0.45,0.19-0.65,0.33
		c-0.2,0.15-0.36,0.31-0.48,0.49c-0.12,0.18-0.21,0.35-0.27,0.52C22.79,68.42,22.73,68.64,22.67,68.92z"/>
	<path class="st0" d="M35.15,74.47c0.09-0.88,0.15-1.61,0.19-2.21c0.06-0.94,0.11-2.02,0.16-3.24s0.08-2.39,0.1-3.49
		c0.58,0.01,1.01,0.02,1.3,0.02c0.27,0,0.7-0.01,1.3-0.02c-0.08,1.02-0.15,1.99-0.19,2.92s-0.08,1.99-0.11,3.18
		s-0.03,2.14-0.03,2.84c-0.54-0.01-0.98-0.02-1.3-0.02C36.24,74.45,35.78,74.46,35.15,74.47z M35.64,64
		c0.02-0.6,0.04-1.07,0.04-1.39v-0.28c0.54,0.01,0.98,0.02,1.32,0.02c0.46,0,0.9-0.01,1.29-0.02c-0.02,0.15-0.03,0.31-0.04,0.5
		L38.21,64c-0.45-0.01-0.87-0.02-1.25-0.02S36.14,63.99,35.64,64z"/>
	<path class="st0" d="M49.25,74.47c-0.49-0.01-0.88-0.02-1.15-0.02c-0.3,0-0.71,0.01-1.23,0.02l0.08-1.53
		c-0.26,0.33-0.49,0.59-0.67,0.77s-0.42,0.35-0.7,0.51s-0.58,0.27-0.9,0.35s-0.65,0.11-1,0.11c-0.57,0-1.11-0.1-1.61-0.31
		s-0.93-0.49-1.28-0.87c-0.35-0.37-0.61-0.81-0.78-1.33s-0.25-1.05-0.25-1.6c0-0.77,0.15-1.52,0.45-2.25s0.7-1.32,1.22-1.77
		s1.1-0.77,1.76-0.96c0.65-0.19,1.36-0.28,2.1-0.28c0.54,0,1.15,0.05,1.84,0.15c0.04-0.76,0.07-1.56,0.07-2.4v-0.6
		c0.56,0.01,0.99,0.02,1.29,0.02c0.39,0,0.82-0.01,1.3-0.02c-0.13,1.49-0.25,3.51-0.37,6.08C49.31,71.11,49.25,73.09,49.25,74.47z
		 M47.05,67.14c-0.45-0.12-0.88-0.18-1.29-0.18c-0.47,0-0.92,0.06-1.35,0.19c-0.43,0.13-0.81,0.35-1.14,0.66
		c-0.33,0.31-0.58,0.71-0.76,1.2c-0.18,0.49-0.27,0.96-0.27,1.41s0.08,0.86,0.25,1.24s0.42,0.67,0.76,0.89s0.73,0.33,1.17,0.33
		c0.33,0,0.62-0.06,0.89-0.17s0.51-0.29,0.73-0.53s0.41-0.54,0.56-0.92s0.26-0.87,0.33-1.49C46.97,69.3,47.01,68.43,47.05,67.14z"/>
	<path class="st0" d="M59.56,72.47c-0.08,0.35-0.19,0.97-0.33,1.86c-0.64,0.13-1.18,0.23-1.62,0.27s-0.88,0.07-1.33,0.07
		c-0.78,0-1.48-0.08-2.09-0.23c-0.62-0.15-1.16-0.43-1.62-0.84c-0.46-0.41-0.81-0.91-1.03-1.5c-0.22-0.59-0.33-1.21-0.33-1.86
		c0-0.72,0.13-1.42,0.38-2.09s0.61-1.23,1.08-1.66c0.46-0.43,0.99-0.73,1.58-0.91s1.21-0.27,1.85-0.27c0.61,0,1.18,0.07,1.73,0.22
		s1.01,0.39,1.38,0.73c0.37,0.34,0.66,0.75,0.86,1.22s0.3,1.01,0.3,1.59c0,0.27-0.03,0.56-0.09,0.85l-6.54,0.01
		c-0.01,0.22-0.02,0.39-0.02,0.52c0,0.39,0.07,0.75,0.21,1.08s0.34,0.61,0.6,0.83c0.26,0.23,0.57,0.4,0.94,0.5
		c0.36,0.11,0.72,0.16,1.07,0.16c0.41,0,0.86-0.04,1.33-0.13S58.9,72.69,59.56,72.47z M53.8,68.92l4.18,0.01
		c0-0.28-0.01-0.49-0.03-0.62c-0.02-0.13-0.06-0.29-0.12-0.46s-0.15-0.32-0.25-0.46s-0.23-0.24-0.38-0.33
		c-0.14-0.09-0.31-0.15-0.5-0.2s-0.39-0.07-0.6-0.07c-0.25,0-0.49,0.04-0.73,0.11c-0.24,0.08-0.45,0.19-0.65,0.33
		c-0.2,0.15-0.36,0.31-0.48,0.49s-0.21,0.35-0.27,0.52C53.92,68.42,53.86,68.64,53.8,68.92z"/>
	<path class="st0" d="M61.64,74.47c0.14-1.33,0.25-2.82,0.34-4.48s0.14-3.14,0.16-4.46c0.55,0.01,0.99,0.02,1.31,0.02
		c0.39,0,0.8-0.01,1.23-0.02l-0.1,1.49c0.18-0.26,0.35-0.46,0.49-0.62c0.14-0.15,0.32-0.3,0.54-0.45s0.45-0.26,0.7-0.35
		s0.52-0.16,0.83-0.21s0.63-0.08,0.96-0.08c0.53,0,1.04,0.07,1.52,0.2c0.48,0.13,0.88,0.34,1.17,0.63c0.3,0.29,0.49,0.6,0.59,0.94
		s0.14,0.7,0.14,1.08c0,0.16-0.01,0.41-0.03,0.76l-0.18,3.84c-0.02,0.53-0.04,1.1-0.04,1.71c-0.47-0.01-0.87-0.02-1.21-0.02
		c-0.45,0-0.91,0.01-1.37,0.02c0.05-0.51,0.11-1.4,0.18-2.67s0.11-2.11,0.11-2.52c0-0.46-0.07-0.83-0.22-1.12
		c-0.15-0.28-0.38-0.5-0.69-0.64c-0.31-0.15-0.65-0.22-1.01-0.22s-0.69,0.07-1,0.2s-0.58,0.33-0.8,0.59
		c-0.24,0.26-0.42,0.59-0.55,0.98c-0.14,0.41-0.24,1.09-0.3,2.03c-0.06,0.84-0.11,1.96-0.14,3.37c-0.46-0.01-0.87-0.02-1.24-0.02
		C62.64,74.45,62.18,74.46,61.64,74.47z"/>
	<path class="st0" d="M78.98,72.63c-0.07,0.32-0.18,0.92-0.34,1.79c-0.5,0.11-0.89,0.18-1.18,0.21s-0.55,0.04-0.8,0.04
		c-0.44,0-0.83-0.04-1.18-0.12s-0.64-0.23-0.86-0.44c-0.23-0.21-0.38-0.45-0.46-0.73c-0.08-0.28-0.12-0.57-0.12-0.87
		c0-0.08,0-0.18,0.01-0.31s0.03-0.54,0.07-1.25l0.2-3.66h-1.28c0.03-0.35,0.06-0.92,0.08-1.7h1.34c0.04-0.34,0.07-0.92,0.11-1.73
		l1.06-0.2c0.22-0.04,0.65-0.14,1.28-0.29c-0.04,0.79-0.07,1.53-0.07,2.22h2.27c-0.04,0.79-0.06,1.36-0.06,1.7h-2.28
		c-0.13,2.38-0.19,3.76-0.19,4.14c0,0.36,0.04,0.64,0.12,0.84s0.21,0.34,0.39,0.43c0.18,0.09,0.37,0.13,0.57,0.13
		c0.15,0,0.3-0.01,0.47-0.04C78.28,72.8,78.57,72.74,78.98,72.63z"/>
	<path class="st0" d="M80.2,74.47c0.09-0.88,0.15-1.61,0.19-2.21c0.06-0.94,0.11-2.02,0.16-3.24s0.08-2.39,0.1-3.49
		c0.58,0.01,1.01,0.02,1.3,0.02c0.27,0,0.7-0.01,1.3-0.02c-0.08,1.02-0.15,1.99-0.19,2.92s-0.08,1.99-0.11,3.18
		s-0.03,2.14-0.03,2.84c-0.54-0.01-0.98-0.02-1.3-0.02C81.29,74.45,80.83,74.46,80.2,74.47z M80.69,64c0.02-0.6,0.04-1.07,0.04-1.39
		v-0.28c0.54,0.01,0.98,0.02,1.32,0.02c0.46,0,0.9-0.01,1.29-0.02c-0.02,0.15-0.03,0.31-0.04,0.5L83.26,64
		c-0.45-0.01-0.87-0.02-1.25-0.02S81.19,63.99,80.69,64z"/>
	<path class="st0" d="M83.96,78.5c-0.11-0.88-0.19-1.51-0.26-1.9c0.57,0.26,1.11,0.4,1.62,0.4c0.15,0,0.31-0.02,0.47-0.06
		s0.31-0.09,0.45-0.16c0.09-0.05,0.18-0.11,0.27-0.2s0.22-0.25,0.38-0.48c0.16-0.23,0.3-0.46,0.42-0.69c0.1-0.2,0.19-0.44,0.29-0.74
		l-1.86-5.34l-1.36-3.79c0.63,0.01,1.07,0.02,1.35,0.02c0.32,0,0.73-0.01,1.24-0.02c0.13,0.49,0.24,0.91,0.35,1.27l0.85,2.76
		c0.26,0.85,0.45,1.49,0.56,1.92c0.07,0.28,0.16,0.65,0.25,1.12c0.18-0.53,0.33-0.97,0.46-1.3c0.23-0.61,0.56-1.42,0.97-2.44
		l0.86-2.1c0.15-0.38,0.31-0.78,0.47-1.21c0.54,0.01,0.94,0.02,1.22,0.02c0.26,0,0.68-0.01,1.29-0.02l-3.44,7.58l-1.49,3.35
		c-0.21,0.43-0.41,0.77-0.6,1.01c-0.15,0.21-0.32,0.38-0.51,0.53c-0.18,0.14-0.37,0.26-0.57,0.35c-0.26,0.12-0.53,0.21-0.83,0.28
		c-0.34,0.07-0.68,0.11-1.03,0.11c-0.2,0-0.47-0.02-0.82-0.05S84.29,78.59,83.96,78.5z"/>
	<path class="st0" d="M105.07,72.63c-0.07,0.32-0.18,0.92-0.34,1.79c-0.5,0.11-0.89,0.18-1.18,0.21s-0.55,0.04-0.8,0.04
		c-0.44,0-0.83-0.04-1.18-0.12s-0.64-0.23-0.86-0.44c-0.23-0.21-0.38-0.45-0.46-0.73s-0.12-0.57-0.12-0.87c0-0.08,0-0.18,0.01-0.31
		s0.03-0.54,0.07-1.25l0.21-3.66h-1.29c0.03-0.35,0.06-0.92,0.08-1.7h1.34c0.04-0.34,0.07-0.92,0.11-1.73l1.05-0.2
		c0.22-0.04,0.65-0.14,1.28-0.29c-0.04,0.79-0.07,1.53-0.07,2.22h2.27c-0.04,0.79-0.06,1.36-0.06,1.7h-2.28
		c-0.13,2.38-0.19,3.76-0.19,4.14c0,0.36,0.04,0.64,0.12,0.84s0.21,0.34,0.39,0.43s0.37,0.13,0.57,0.13c0.15,0,0.31-0.01,0.47-0.04
		C104.37,72.8,104.66,72.74,105.07,72.63z"/>
	<path class="st0" d="M111.17,65.32c0.68,0,1.34,0.1,1.97,0.3c0.63,0.2,1.16,0.5,1.6,0.9c0.44,0.39,0.77,0.88,0.99,1.45
		s0.33,1.17,0.33,1.81c0,0.67-0.12,1.31-0.35,1.93c-0.23,0.62-0.57,1.16-1.01,1.61s-0.99,0.79-1.65,1.02
		c-0.66,0.22-1.36,0.34-2.1,0.34c-0.69,0-1.35-0.1-1.97-0.3c-0.62-0.2-1.15-0.51-1.59-0.91s-0.78-0.9-1-1.48
		c-0.23-0.58-0.34-1.19-0.34-1.82c0-0.64,0.1-1.26,0.31-1.85s0.53-1.11,0.98-1.56s1.01-0.81,1.7-1.06S110.44,65.32,111.17,65.32z
		 M111.17,67.13c-0.52,0-0.98,0.13-1.38,0.37s-0.71,0.62-0.91,1.11s-0.3,1.03-0.3,1.61c0,0.51,0.08,0.96,0.24,1.36
		s0.43,0.72,0.8,0.97s0.81,0.37,1.32,0.37c0.52,0,0.98-0.13,1.37-0.38s0.69-0.63,0.89-1.13c0.2-0.49,0.3-1.04,0.3-1.64
		c0-0.49-0.08-0.93-0.23-1.33s-0.41-0.72-0.78-0.96C112.14,67.25,111.69,67.13,111.17,67.13z"/>
	<path class="st0" d="M122,74.21c-0.05-0.89-0.11-1.62-0.19-2.18c1.17,0.52,2.23,0.78,3.18,0.78c0.38,0,0.74-0.06,1.07-0.17
		s0.57-0.27,0.73-0.48c0.16-0.21,0.24-0.44,0.24-0.7c0-0.2-0.04-0.38-0.11-0.54c-0.11-0.22-0.3-0.44-0.57-0.68
		c-0.34-0.32-0.95-0.85-1.82-1.59c-0.42-0.36-0.7-0.61-0.86-0.76c-0.36-0.33-0.63-0.63-0.82-0.9s-0.33-0.53-0.41-0.8
		c-0.08-0.26-0.13-0.54-0.13-0.84c0-0.55,0.16-1.07,0.47-1.55s0.78-0.86,1.4-1.13s1.41-0.41,2.35-0.41c0.85,0,1.81,0.1,2.87,0.31
		c0.03,0.61,0.09,1.31,0.18,2.09c-0.93-0.35-1.78-0.53-2.57-0.53c-0.58,0-1.06,0.13-1.43,0.39s-0.56,0.56-0.56,0.91
		c0,0.09,0.01,0.19,0.04,0.29s0.06,0.2,0.12,0.3c0.05,0.1,0.14,0.22,0.28,0.38c0.13,0.16,0.33,0.34,0.58,0.54
		c0.25,0.21,0.47,0.38,0.65,0.51l1.1,0.98c0.28,0.23,0.53,0.45,0.75,0.67s0.41,0.42,0.57,0.62s0.28,0.39,0.37,0.57
		s0.16,0.37,0.2,0.56c0.04,0.19,0.07,0.39,0.07,0.6c0,0.49-0.12,0.96-0.35,1.39c-0.23,0.44-0.57,0.8-1,1.08
		c-0.43,0.28-0.91,0.48-1.43,0.58c-0.52,0.11-1.07,0.16-1.64,0.16c-0.38,0-0.82-0.03-1.33-0.1S122.83,74.4,122,74.21z"/>
	<path class="st0" d="M131.52,74.47c0.09-0.88,0.15-1.61,0.19-2.21c0.06-0.94,0.11-2.02,0.16-3.24s0.08-2.39,0.1-3.49
		c0.58,0.01,1.01,0.02,1.3,0.02c0.27,0,0.7-0.01,1.3-0.02c-0.08,1.02-0.15,1.99-0.19,2.92s-0.08,1.99-0.11,3.18
		c-0.02,1.2-0.03,2.14-0.03,2.84c-0.54-0.01-0.98-0.02-1.3-0.02C132.62,74.45,132.15,74.46,131.52,74.47z M132.01,64
		c0.02-0.6,0.04-1.07,0.04-1.39v-0.28c0.54,0.01,0.98,0.02,1.32,0.02c0.46,0,0.9-0.01,1.29-0.02c-0.02,0.15-0.03,0.31-0.04,0.5
		L134.58,64c-0.45-0.01-0.87-0.02-1.25-0.02S132.51,63.99,132.01,64z"/>
	<path class="st0" d="M136.41,74.47c0.08-1,0.17-2.48,0.26-4.46c0.09-1.98,0.14-3.47,0.14-4.47c0.5,0.01,0.92,0.02,1.23,0.02
		c0.36,0,0.76-0.01,1.18-0.02l-0.07,1.42c0.19-0.28,0.36-0.5,0.52-0.67s0.36-0.33,0.61-0.48s0.54-0.26,0.88-0.35
		c0.34-0.08,0.68-0.13,1.04-0.13c0.27,0,0.53,0.03,0.78,0.08s0.48,0.12,0.68,0.21s0.38,0.19,0.53,0.31s0.27,0.25,0.37,0.39
		c0.1,0.14,0.21,0.36,0.33,0.64c0.13-0.21,0.25-0.38,0.36-0.51c0.11-0.14,0.26-0.28,0.44-0.43s0.39-0.27,0.62-0.37
		c0.23-0.1,0.48-0.18,0.76-0.23s0.58-0.08,0.88-0.08c0.52,0,1.01,0.08,1.46,0.25c0.46,0.17,0.82,0.43,1.08,0.79s0.39,0.81,0.39,1.34
		c0,0.28-0.02,0.69-0.06,1.24s-0.09,1.43-0.15,2.67c-0.06,1.23-0.09,2.19-0.1,2.86c-0.43-0.01-0.82-0.02-1.15-0.02
		c-0.39,0-0.86,0.01-1.39,0.02c0.05-0.76,0.1-1.55,0.15-2.37l0.11-2.01c0.03-0.51,0.04-0.94,0.04-1.29c0-0.42-0.07-0.74-0.2-0.95
		s-0.3-0.37-0.51-0.46c-0.21-0.09-0.44-0.14-0.69-0.14c-0.27,0-0.51,0.05-0.73,0.15s-0.42,0.26-0.61,0.49s-0.33,0.48-0.43,0.78
		c-0.1,0.3-0.18,0.71-0.22,1.25c-0.05,0.54-0.08,1.24-0.11,2.11l-0.06,2.44c-0.49-0.01-0.91-0.02-1.23-0.02s-0.77,0.01-1.31,0.02
		c0.04-0.45,0.1-1.37,0.18-2.77s0.12-2.33,0.12-2.82c0-0.26-0.02-0.48-0.06-0.65c-0.04-0.18-0.13-0.35-0.25-0.51
		s-0.28-0.28-0.45-0.36s-0.37-0.11-0.6-0.11c-0.42,0-0.78,0.13-1.1,0.4s-0.55,0.63-0.69,1.08s-0.25,1.33-0.32,2.63
		c-0.06,1.3-0.1,2.34-0.1,3.11c-0.55-0.01-0.96-0.02-1.24-0.02C137.41,74.45,136.97,74.46,136.41,74.47z"/>
	<path class="st0" d="M152.51,78.5c0.15-1.63,0.28-3.75,0.4-6.35s0.18-4.71,0.18-6.34c1.13-0.2,2-0.33,2.62-0.4
		c0.62-0.06,1.23-0.1,1.85-0.1c0.8,0,1.54,0.09,2.21,0.28c0.67,0.19,1.21,0.5,1.61,0.94s0.7,0.95,0.89,1.53s0.29,1.19,0.29,1.82
		c0,0.64-0.09,1.25-0.28,1.85s-0.47,1.12-0.85,1.59c-0.38,0.47-0.82,0.82-1.32,1.03s-1.05,0.32-1.65,0.32
		c-0.35,0-0.7-0.04-1.04-0.12s-0.64-0.19-0.9-0.33s-0.47-0.27-0.64-0.41c-0.17-0.14-0.38-0.34-0.63-0.62l-0.14,3.82l-0.01,0.6
		c-0.01,0.08-0.01,0.37-0.01,0.88c-0.55-0.01-0.97-0.01-1.27-0.01L152.51,78.5z M155.55,67.43c-0.04,0.32-0.07,0.59-0.09,0.82
		l-0.05,0.98c-0.02,0.42-0.04,0.73-0.04,0.93c0,0.36,0.04,0.7,0.11,1.03s0.22,0.63,0.45,0.9s0.49,0.48,0.8,0.63
		c0.31,0.14,0.63,0.21,0.95,0.21c0.45,0,0.87-0.13,1.24-0.38s0.66-0.63,0.86-1.12c0.2-0.49,0.3-1.01,0.3-1.57
		c0-0.61-0.11-1.13-0.33-1.56c-0.22-0.42-0.52-0.73-0.9-0.93c-0.38-0.19-0.8-0.29-1.28-0.29C156.95,67.08,156.28,67.2,155.55,67.43z
		"/>
	<path class="st0" d="M164.1,74.47c0.09-0.99,0.2-2.77,0.32-5.34c0.13-2.57,0.21-4.79,0.24-6.66c0.62,0.01,1.06,0.02,1.32,0.02
		c0.35,0,0.78-0.01,1.29-0.02l-0.21,3.21l-0.31,7.15l-0.04,1.63c-0.49-0.01-0.9-0.02-1.24-0.02
		C165.36,74.45,164.9,74.46,164.1,74.47z"/>
	<path class="st0" d="M168.94,74.47c0.09-0.88,0.15-1.61,0.19-2.21c0.06-0.94,0.11-2.02,0.16-3.24s0.08-2.39,0.1-3.49
		c0.58,0.01,1.01,0.02,1.3,0.02c0.27,0,0.7-0.01,1.3-0.02c-0.08,1.02-0.15,1.99-0.19,2.92s-0.08,1.99-0.11,3.18
		c-0.02,1.2-0.03,2.14-0.03,2.84c-0.54-0.01-0.98-0.02-1.3-0.02C170.03,74.45,169.57,74.46,168.94,74.47z M169.43,64
		c0.02-0.6,0.04-1.07,0.04-1.39v-0.28c0.54,0.01,0.98,0.02,1.32,0.02c0.46,0,0.9-0.01,1.29-0.02c-0.02,0.15-0.03,0.31-0.04,0.5
		L172,64c-0.45-0.01-0.87-0.02-1.25-0.02S169.93,63.99,169.43,64z"/>
	<path class="st0" d="M174.14,74.47l0.11-1.45l0.27-5.71h-1.11c0.02-0.18,0.04-0.46,0.06-0.86s0.03-0.68,0.04-0.87h1.21v-0.35
		c0-0.63,0.03-1.11,0.08-1.44c0.05-0.33,0.15-0.6,0.3-0.81c0.15-0.21,0.35-0.39,0.62-0.55c0.26-0.15,0.56-0.26,0.87-0.32
		c0.31-0.05,0.64-0.08,0.97-0.08c0.68,0,1.4,0.09,2.15,0.28c0.02,0.66,0.05,1.22,0.1,1.69c-0.57-0.2-1.09-0.3-1.56-0.3
		c-0.18,0-0.35,0.02-0.51,0.07c-0.16,0.04-0.28,0.1-0.38,0.18c-0.1,0.08-0.18,0.18-0.25,0.3s-0.11,0.27-0.13,0.43
		c-0.02,0.17-0.04,0.36-0.04,0.58v0.33h2.28c-0.04,0.4-0.07,0.98-0.11,1.72h-2.14c-0.12,2.33-0.2,4.72-0.26,7.16
		c-0.54-0.01-0.97-0.02-1.29-0.02C175.09,74.45,174.67,74.46,174.14,74.47z"/>
	<path class="st0" d="M178.98,78.5c-0.11-0.88-0.19-1.51-0.26-1.9c0.57,0.26,1.11,0.4,1.62,0.4c0.15,0,0.31-0.02,0.47-0.06
		s0.31-0.09,0.45-0.16c0.09-0.05,0.18-0.11,0.27-0.2c0.09-0.09,0.22-0.25,0.38-0.48s0.3-0.46,0.42-0.69
		c0.09-0.2,0.19-0.44,0.29-0.74l-1.86-5.34l-1.36-3.79c0.63,0.01,1.07,0.02,1.35,0.02c0.32,0,0.73-0.01,1.24-0.02
		c0.13,0.49,0.24,0.91,0.35,1.27l0.85,2.76c0.26,0.85,0.45,1.49,0.56,1.92c0.07,0.28,0.15,0.65,0.25,1.12
		c0.18-0.53,0.33-0.97,0.46-1.3c0.23-0.61,0.56-1.42,0.97-2.44l0.86-2.1c0.16-0.38,0.31-0.78,0.47-1.21
		c0.54,0.01,0.94,0.02,1.22,0.02c0.26,0,0.68-0.01,1.29-0.02l-3.44,7.58l-1.49,3.35c-0.21,0.43-0.41,0.77-0.6,1.01
		c-0.16,0.21-0.33,0.38-0.51,0.53c-0.18,0.14-0.37,0.26-0.57,0.35c-0.26,0.12-0.53,0.21-0.83,0.28c-0.34,0.07-0.68,0.11-1.03,0.11
		c-0.2,0-0.47-0.02-0.82-0.05C179.66,78.64,179.32,78.59,178.98,78.5z"/>
</g>
<g>
	<rect x="43.52" y="0.02" class="st0" width="13.71" height="24.27"/>
	<polygon class="st0" points="35.52,24.29 13.19,0.02 0,0.02 0,24.28 12.13,24.28 12.13,15.84 19.7,24.29 	"/>
	<polygon class="st0" points="43.52,26.12 43.52,32.99 37.2,26.12 21.34,26.12 44.04,51.45 57.23,51.45 57.23,26.12 	"/>
</g>
</svg>
